<svg aria-hidden="true" focusable="false" data-prefix="far" data-icon="book" class="svg-inline--fa fa-book fa-w-14" role="img" xmlns="http://www.w3.org/2000/svg" viewBox="0 0 448 512"><path fill="currentColor" d="M128 152v-32c0-4.4 3.6-8 8-8h208c4.4 0 8 3.6 8 8v32c0 4.4-3.6 8-8 8H136c-4.4 0-8-3.6-8-8zm8 88h208c4.4 0 8-3.6 8-8v-32c0-4.4-3.6-8-8-8H136c-4.4 0-8 3.6-8 8v32c0 4.4 3.6 8 8 8zm299.1 159.7c-4.2 13-4.2 51.6 0 64.6 7.3 1.4 12.9 7.9 12.9 15.7v16c0 8.8-7.2 16-16 16H80c-44.2 0-80-35.8-80-80V80C0 35.8 35.8 0 80 0h352c8.8 0 16 7.2 16 16v368c0 7.8-5.5 14.2-12.9 15.7zm-41.1.3H80c-17.6 0-32 14.4-32 32 0 17.7 14.3 32 32 32h314c-2.7-17.3-2.7-46.7 0-64zm6-352H80c-17.7 0-32 14.3-32 32v278.7c9.8-4.3 20.6-6.7 32-6.7h320V48z"></path></svg>