<?xml version="1.0" encoding="UTF-8" standalone="no"?>
<svg
   xmlns:dc="http://purl.org/dc/elements/1.1/"
   xmlns:cc="http://creativecommons.org/ns#"
   xmlns:rdf="http://www.w3.org/1999/02/22-rdf-syntax-ns#"
   xmlns:svg="http://www.w3.org/2000/svg"
   xmlns="http://www.w3.org/2000/svg"
   xmlns:sodipodi="http://sodipodi.sourceforge.net/DTD/sodipodi-0.dtd"
   xmlns:inkscape="http://www.inkscape.org/namespaces/inkscape"
   aria-hidden="true"
   focusable="false"
   data-prefix="fas"
   data-icon="pizza-slice"
   class="svg-inline--fa fa-pizza-slice fa-w-16"
   role="img"
   viewBox="0 0 512 512"
   version="1.1"
   id="svg4"
   sodipodi:docname="recipe_no_image.svg"
   inkscape:version="0.92.4 (5da689c313, 2019-01-14)">
  <metadata
     id="metadata10">
    <rdf:RDF>
      <cc:Work
         rdf:about="">
        <dc:format>image/svg+xml</dc:format>
        <dc:type
           rdf:resource="http://purl.org/dc/dcmitype/StillImage" />
      </cc:Work>
    </rdf:RDF>
  </metadata>
  <defs
     id="defs8" />
  <sodipodi:namedview
     pagecolor="#ffffff"
     bordercolor="#666666"
     borderopacity="1"
     objecttolerance="10"
     gridtolerance="10"
     guidetolerance="10"
     inkscape:pageopacity="0"
     inkscape:pageshadow="2"
     inkscape:window-width="3840"
     inkscape:window-height="2066"
     id="namedview6"
     showgrid="false"
     inkscape:zoom="0.921875"
     inkscape:cx="309.52383"
     inkscape:cy="214.71807"
     inkscape:window-x="2869"
     inkscape:window-y="54"
     inkscape:window-maximized="1"
     inkscape:current-layer="svg4" />
  <rect
     style="fill:#f5f5f6;fill-opacity:1;stroke:#d8dde0;stroke-width:3.77952766;stroke-miterlimit:4;stroke-dasharray:none;stroke-opacity:1"
     id="rect817"
     width="1717.1526"
     height="1092.339"
     x="-602.57629"
     y="-290.16949" />
  <path
     d="m 198.99508,105.32039 c -9.4835,-0.89523 -18.30973,4.9591 -20.73342,14.20588 l -8.69126,33.14115 c 110.10488,3.23343 184.58794,76.92493 189.24752,186.70242 l 33.41527,-9.29389 c 9.22528,-2.56789 14.95881,-11.59086 13.8614,-21.1439 C 393.84116,202.45866 305.74904,115.43295 198.99508,105.32039 Z m -34.31314,65.96427 -58.59701,223.50695 a 9.5128449,9.5471493 0 0 0 11.73701,11.63209 l 222.4163,-61.9004 C 337.73239,241.51893 268.0087,172.46259 164.68194,171.30821 Z m 16.19707,178.95751 a 18.779213,18.846933 0 1 1 18.77921,-18.84693 18.779213,18.846933 0 0 1 -18.77921,18.84693 z m 28.16882,-89.52293 a 18.779213,18.846933 0 1 1 18.77921,-18.84693 18.779213,18.846933 0 0 1 -18.77921,18.84693 z m 61.03245,61.25253 a 18.779213,18.846933 0 1 1 18.77921,-18.84693 18.779213,18.846933 0 0 1 -18.77921,18.84693 z"
     id="path2"
     style="fill:#d9cfbe;fill-opacity:1;stroke-width:0.58790755"
     inkscape:connector-curvature="0" />
</svg>
