<svg width="88" height="32" viewBox="0 0 88 32" fill="none" xmlns="http://www.w3.org/2000/svg">
<path d="M44.0254 8.4431C45.9694 8.4431 47.711 8.9491 49.2492 9.9481C50.7874 10.9531 52.01 12.3311 52.9118 14.0881C53.8137 15.8451 54.2647 17.8821 54.2647 20.2001C54.2647 22.5221 53.8137 24.5651 52.9118 26.3331C52.01 28.1011 50.8045 29.4901 49.2883 30.4951C47.7782 31.5001 46.0766 32.0001 44.1887 32.0001C43.0784 32.0001 42.0362 31.8131 41.0672 31.4451C40.0972 31.0771 39.2414 30.6101 38.5089 30.0451C37.7704 29.4791 37.2012 28.9081 36.8013 28.3261C36.4005 27.7441 36.1981 27.2611 36.1981 26.8601L37.4888 26.3061V29.4021C37.4888 30.1381 37.2523 30.7531 36.7783 31.2471C36.3053 31.7421 35.7081 31.9891 34.9866 31.9891C34.2651 31.9891 33.6678 31.7471 33.1949 31.2691C32.7209 30.7861 32.4844 30.1661 32.4844 29.4021V2.7381C32.4844 2.0031 32.7209 1.3881 33.1949 0.8931C33.6678 0.3991 34.2651 0.1521 34.9866 0.1521C35.7081 0.1521 36.3053 0.3991 36.7783 0.8931C37.2523 1.3881 37.4888 2.0031 37.4888 2.7381V13.5231L36.7783 13.1381C36.7783 12.7701 36.9697 12.3261 37.3585 11.7991C37.7473 11.2771 38.2774 10.7501 38.9428 10.2281C39.6072 9.7061 40.3798 9.2731 41.2526 8.9321C42.1264 8.6141 43.0503 8.4431 44.0254 8.4431ZM43.4001 13.1161C42.1775 13.1161 41.1123 13.4291 40.1934 14.0501C39.2745 14.6701 38.565 15.5161 38.0519 16.5761C37.5389 17.6351 37.2803 18.8491 37.2803 20.2051C37.2803 21.5341 37.5339 22.7471 38.0519 23.8351C38.565 24.9271 39.2805 25.7781 40.1934 26.4041C41.1123 27.0251 42.1775 27.3381 43.4001 27.3381C44.6226 27.3381 45.6818 27.0251 46.5837 26.4041C47.4856 25.7841 48.195 24.9271 48.7081 23.8351C49.2212 22.7471 49.4807 21.5341 49.4807 20.2051C49.4807 18.8491 49.2212 17.6351 48.7081 16.5761C48.195 15.5161 47.4856 14.6701 46.5837 14.0501C45.6818 13.4241 44.6166 13.1161 43.4001 13.1161Z" fill="#010101"/>
<path d="M63.1062 29.275C63.1062 30.022 62.8646 30.647 62.3816 31.149C61.8986 31.65 61.2984 31.901 60.5799 31.901C59.8895 31.901 59.3052 31.65 58.8403 31.149C58.3683 30.647 58.1328 30.022 58.1328 29.275V2.627C58.1328 1.879 58.3743 1.255 58.8563 0.753C59.3393 0.251 59.9396 0 60.6581 0C61.3766 0 61.9658 0.251 62.4207 0.753C62.8757 1.255 63.1062 1.879 63.1062 2.627V29.275Z" fill="#010101"/>
<path d="M77.8659 31.6011C75.505 31.6011 73.4587 31.1011 71.7231 30.0961C69.9875 29.0911 68.6578 27.7241 67.7278 26.0001C66.7979 24.2761 66.3359 22.3211 66.3359 20.1411C66.3359 17.5931 66.843 15.4241 67.8581 13.6231C68.8722 11.8281 70.196 10.4441 71.8364 9.48306C73.4758 8.52206 75.2064 8.03906 77.0372 8.03906C78.4521 8.03906 79.7929 8.33506 81.0555 8.92806C82.3182 9.52106 83.4335 10.3341 84.4085 11.3721C85.3775 12.4041 86.1501 13.6011 86.7183 14.9581C87.2875 16.3141 87.5701 17.7581 87.5701 19.2901C87.542 19.9711 87.2765 20.5201 86.7804 20.9481C86.2794 21.3711 85.6992 21.5851 85.0338 21.5851H69.1318L67.8801 17.3411H83.1569L82.239 18.1921V17.0441C82.1829 16.2261 81.9003 15.4901 81.3882 14.8371C80.8752 14.1831 80.2378 13.6671 79.4722 13.2881C78.7057 12.9041 77.894 12.7171 77.0372 12.7171C76.2035 12.7171 75.4258 12.8331 74.7043 13.0581C73.9828 13.2831 73.3575 13.6671 72.8334 14.2051C72.3043 14.7431 71.8925 15.4631 71.5828 16.3691C71.2782 17.2751 71.1259 18.4221 71.1259 19.8061C71.1259 21.3331 71.4365 22.6281 72.0618 23.6881C72.6871 24.7481 73.4928 25.5551 74.4739 26.1101C75.4599 26.6641 76.5081 26.9391 77.6184 26.9391C78.6435 26.9391 79.4602 26.8561 80.0745 26.6861C80.6838 26.5161 81.1798 26.3131 81.5516 26.0711C81.9233 25.8291 82.2671 25.6261 82.5717 25.4561C83.0727 25.2041 83.5407 25.0721 83.9856 25.0721C84.5939 25.0721 85.1019 25.2861 85.5068 25.7091C85.9076 26.1321 86.11 26.6311 86.11 27.1971C86.11 27.9601 85.7212 28.6571 84.9436 29.2781C84.2221 29.8981 83.208 30.4471 81.9063 30.9141C80.5986 31.3701 79.2578 31.6011 77.8659 31.6011Z" fill="#010101"/>
<path d="M17.3354 13.487C21.1563 13.487 24.2618 16.512 24.2618 20.235V26.983H17.1269C13.4253 26.983 10.41 24.046 10.41 20.438V20.235C10.41 16.512 13.5154 13.487 17.3354 13.487ZM17.3354 8.74805C10.8269 8.74805 5.54688 13.887 5.54688 20.235V20.438C5.54688 26.67 10.7317 31.722 17.1269 31.722H27.254C28.2851 31.722 29.1189 30.909 29.1189 29.905V20.24C29.1189 13.893 23.8449 8.74805 17.3354 8.74805Z" fill="#010101"/>
<path d="M0.0060125 6.728C0.0060125 9.341 2.18053 11.455 4.8571 11.455C7.53967 11.455 9.70919 9.336 9.70919 6.728V6.645C9.70919 4.081 7.57375 2 4.94228 2H0L0.0060125 6.728Z" fill="#010101"/>
<path d="M13.4266 2C12.1369 2 11.0938 3.016 11.0938 4.273V5.13C11.0938 6.387 12.1369 7.403 13.4266 7.403H14.3565C15.6192 7.403 16.6393 6.404 16.6393 5.179V2H13.4266Z" fill="#010101"/>
</svg>
