<?xml version="1.0" encoding="UTF-8" standalone="no"?>
<svg
   xmlns:serif="http://www.serif.com/"
   xmlns:dc="http://purl.org/dc/elements/1.1/"
   xmlns:cc="http://creativecommons.org/ns#"
   xmlns:rdf="http://www.w3.org/1999/02/22-rdf-syntax-ns#"
   xmlns:svg="http://www.w3.org/2000/svg"
   xmlns="http://www.w3.org/2000/svg"
   xmlns:sodipodi="http://sodipodi.sourceforge.net/DTD/sodipodi-0.dtd"
   xmlns:inkscape="http://www.inkscape.org/namespaces/inkscape"
   width="2048"
   height="512"
   viewBox="0 0 2048 512"
   version="1.1"
   xml:space="preserve"
   style="clip-rule:evenodd;fill-rule:evenodd;stroke-linejoin:round;stroke-miterlimit:2"
   id="svg48"
   sodipodi:docname="brand_logo_white.svg"
   inkscape:version="1.0.2-2 (e86c870879, 2021-01-15)"><metadata
   id="metadata52"><rdf:RDF><cc:Work
       rdf:about=""><dc:format>image/svg+xml</dc:format><dc:type
         rdf:resource="http://purl.org/dc/dcmitype/StillImage" /><dc:title></dc:title></cc:Work></rdf:RDF></metadata><sodipodi:namedview
   pagecolor="#ffffff"
   bordercolor="#666666"
   borderopacity="1"
   objecttolerance="10"
   gridtolerance="10"
   guidetolerance="10"
   inkscape:pageopacity="0"
   inkscape:pageshadow="2"
   inkscape:window-width="2560"
   inkscape:window-height="1377"
   id="namedview50"
   showgrid="false"
   inkscape:zoom="0.4921875"
   inkscape:cx="781.42929"
   inkscape:cy="329.59753"
   inkscape:window-x="1912"
   inkscape:window-y="1072"
   inkscape:window-maximized="1"
   inkscape:current-layer="svg48"
   inkscape:document-rotation="0" />
    <g
   id="g880"
   transform="translate(0,2.5332475e-4)"><g
     id="Logo"
     transform="matrix(0.637323,0,0,0.637323,-243.095,-716.725)">
        <g
   id="Kreis"
   transform="matrix(1.44936,0,0,1.50279,387.258,1039.34)">
            <ellipse
   cx="273.12299"
   cy="324.01501"
   rx="259.82199"
   ry="250.584"
   style="fill:url(#_Linear1)"
   id="ellipse2" />
            <clipPath
   id="_clip2">
                <ellipse
   cx="273.12299"
   cy="324.01501"
   rx="259.82199"
   ry="250.584"
   id="ellipse4" />
            </clipPath>
            <g
   clip-path="url(#_clip2)"
   id="g18">
                <g
   id="Shadow"
   transform="matrix(1.10322,0,0,1.064,-5.58287,50.5786)">
                    <path
   d="M 156.285,427.208 389.554,660.477 668.803,495.551 374.012,200.761 Z"
   style="fill:#161616"
   id="path7" />
                    <g
   transform="translate(-4.22105,0.775864)"
   id="g11">
                        <path
   d="M 208.628,178.613 485.935,455.919 590.027,364.63 296.923,71.526 l -2.748,67.463 z"
   style="fill:#161616"
   id="path9" />
                    </g>
                    <g
   transform="translate(-85.3876,27.8512)"
   id="g15">
                        <path
   d="m 310.385,145.641 277.307,277.307 2.7,-61.591 -293.104,-293.104 -3.113,70.736 z"
   style="fill:#161616"
   id="path13" />
                    </g>
                </g>
            </g>
        </g>
        <g
   transform="matrix(1.471,0,0,1.471,406.537,1149.69)"
   id="g23">
            <path
   d="m 256.049,220 c 30.173,-0.006 56.607,-12.69 73.339,-25.866 16.962,-13.38 41.511,-10.728 55.223,5.966 22.518,27.276 35.987,61.844 35.987,99.43 0,61.55 -37.994,137.571 -90.834,164.176 -22.729,11.444 -46.298,16.88 -73.666,16.893 v 0 H 256.049 256 v 0 C 228.632,480.586 205.063,475.15 182.334,463.706 129.494,437.101 91.5,361.08 91.5,299.53 c 0,-37.586 13.469,-72.154 35.987,-99.43 13.712,-16.694 38.261,-19.346 55.223,-5.966 16.732,13.176 43.166,25.86 73.339,25.866 z"
   style="fill:#ffcb76"
   id="path21" />
        </g>
        <g
   id="Flame-2"
   serif:id="Flame 2"
   transform="matrix(0.965725,0,0,0.89175,164.497,436.391)">
            <path
   d="m 604.408,844.314 c -2.427,-3.469 -2.446,-8.258 -0.046,-11.749 2.401,-3.491 6.643,-4.844 10.407,-3.319 19.101,7.623 44.064,19.383 63.438,35.206 40.319,32.929 51.343,54.955 60.345,77.639 10.656,26.852 12.233,54.589 9.963,73.989 -6.497,55.53 -48.16,101.42 -107.481,101.42 -59.321,0 -106.541,-45.45 -107.481,-101.42 -0.567,-33.708 10.432,-60.637 22.435,-79.86 2.994,-4.783 8.606,-6.751 13.621,-4.776 5.014,1.975 8.148,7.387 7.606,13.136 -1.722,12.136 -2.853,24.792 -2.283,34.904 1.931,34.216 22.239,43.016 43.151,42.806 22.288,-0.21 44.842,-19.12 36.714,-67.395 -7.107,-42.214 -32.435,-84.701 -50.389,-110.581 z"
   style="fill:#ff6f00"
   id="path25" />
            <clipPath
   id="_clip3">
                <path
   d="m 604.408,844.314 c -2.427,-3.469 -2.446,-8.258 -0.046,-11.749 2.401,-3.491 6.643,-4.844 10.407,-3.319 19.101,7.623 44.064,19.383 63.438,35.206 40.319,32.929 51.343,54.955 60.345,77.639 10.656,26.852 12.233,54.589 9.963,73.989 -6.497,55.53 -48.16,101.42 -107.481,101.42 -59.321,0 -106.541,-45.45 -107.481,-101.42 -0.567,-33.708 10.432,-60.637 22.435,-79.86 2.994,-4.783 8.606,-6.751 13.621,-4.776 5.014,1.975 8.148,7.387 7.606,13.136 -1.722,12.136 -2.853,24.792 -2.283,34.904 1.931,34.216 22.239,43.016 43.151,42.806 22.288,-0.21 44.842,-19.12 36.714,-67.395 -7.107,-42.214 -32.435,-84.701 -50.389,-110.581 z"
   id="path27" />
            </clipPath>
            <g
   clip-path="url(#_clip3)"
   id="g34">
                <g
   transform="matrix(1.28784,-0.270602,0.285942,1.59598,247.349,825.209)"
   id="g32">
                    <path
   d="m 255.004,46.957 c 24.543,11.588 50.996,38.49 58.303,73.204 12.13,57.63 -21.736,73.628 -50.811,72.242 -46.607,-2.222 -62.302,-39.157 -31.17,-83.503 19.305,-27.499 1.337,-72.492 23.678,-61.943 z"
   style="fill:#ffd100"
   id="path30" />
                </g>
            </g>
        </g>
        <g
   id="Hut"
   transform="matrix(1.521,0,0,1.521,393.566,1149.06)">
            <path
   d="m 228.197,408.524 c -5.499,0 -10.384,-1.836 -14.173,-4.905 -2.248,-1.825 -3.104,-4.867 -2.136,-7.595 0.968,-2.729 3.549,-4.552 6.444,-4.552 13.882,-0.072 37.78,-0.076 37.78,-0.076 0,0 23.897,0.004 37.779,0.076 2.895,0 5.476,1.823 6.444,4.552 0.968,2.728 0.112,5.77 -2.136,7.595 -3.789,3.069 -8.673,4.905 -14.172,4.905 z M 217.24,378.877 c -3.032,0 -5.94,-1.206 -8.082,-3.352 -2.143,-2.146 -3.344,-5.056 -3.338,-8.089 0.011,-6.317 0.022,-12.897 0.022,-12.897 0,-4.116 -2.745,-7.725 -6.711,-8.825 -13.818,-3.873 -23.931,-16.246 -23.931,-30.891 0,-17.753 14.859,-32.166 33.162,-32.166 0,0 0,0 0,0 7.039,0 13.313,-4.439 15.655,-11.076 3.226,-9.191 12.394,-19.566 31.983,-19.583 v 0 h 0.223 v 0 c 19.589,0.017 28.757,10.392 31.983,19.583 2.343,6.637 8.616,11.076 15.655,11.076 0,0 0,0 0,0 18.303,0 33.162,14.413 33.162,32.166 0,14.645 -10.112,27.018 -23.93,30.891 -3.966,1.1 -6.711,4.709 -6.712,8.825 0,0 0.005,6.588 0.01,12.908 0.003,3.031 -1.2,5.938 -3.342,8.082 -2.142,2.143 -5.048,3.348 -8.078,3.348 -19.356,0 -58.367,0 -77.731,0 z"
   style="fill:#161616"
   id="path37" />
        </g>
    </g></g>
    <defs
   id="defs46">
        <linearGradient
   id="_Linear1"
   x1="0"
   y1="0"
   x2="1"
   y2="0"
   gradientUnits="userSpaceOnUse"
   gradientTransform="matrix(2e-6,0,0,2e-6,3755.77,81.7179)"><stop
     offset="0"
     style="stop-color:rgb(39,39,39);stop-opacity:1"
     id="stop41" /><stop
     offset="1"
     style="stop-color:rgb(108,108,108);stop-opacity:1"
     id="stop43" /></linearGradient>
    </defs>
<text
   xml:space="preserve"
   style="font-style:normal;font-weight:normal;font-size:333.333px;line-height:1.25;font-family:sans-serif;fill:#ffffff;fill-opacity:1;stroke:none"
   x="625.77777"
   y="373.5943"
   id="text56"><tspan
     sodipodi:role="line"
     id="tspan54"
     x="625.77777"
     y="373.5943"
     style="font-style:normal;font-variant:normal;font-weight:normal;font-stretch:normal;font-size:333.333px;font-family:'Maiandra GD';-inkscape-font-specification:'Maiandra GD';fill:#ffffff;fill-opacity:1">Tandoor</tspan></text></svg>
