<svg width="182" height="186" viewBox="0 0 182 186" fill="none" xmlns="http://www.w3.org/2000/svg">
<path d="M108.346 71.7938C132.227 71.7938 151.636 90.7 151.636 113.969V156.144H107.043C83.9081 156.144 65.0625 137.787 65.0625 115.237V113.969C65.0625 90.7 84.4712 71.7938 108.346 71.7938ZM108.346 42.1753C67.6681 42.1753 34.668 74.2938 34.668 113.969V115.237C34.668 154.187 67.0731 185.762 107.043 185.762H170.337C176.782 185.762 181.993 180.681 181.993 174.406V114C181.993 74.3312 149.031 42.1753 108.346 42.1753Z" fill="#010101"/>
<path d="M0.0375781 29.55C0.0375781 45.8813 13.6283 59.0937 30.3569 59.0937C47.1229 59.0937 60.6824 45.85 60.6824 29.55V29.0312C60.6824 13.0063 47.3359 0 30.8892 0H0L0.0375781 29.55Z" fill="#010101"/>
<path d="M83.9162 0C75.8556 0 69.3362 6.35 69.3362 14.2062V19.5625C69.3362 27.4188 75.8556 33.7687 83.9162 33.7687H89.7281C97.62 33.7687 103.996 27.525 103.996 19.8687V0H83.9162Z" fill="#010101"/>
</svg>
