<?xml version="1.0" encoding="UTF-8" standalone="no"?>
<!DOCTYPE svg PUBLIC "-//W3C//DTD SVG 1.1//EN" "http://www.w3.org/Graphics/SVG/1.1/DTD/svg11.dtd">
<svg width="100%" height="100%" viewBox="0 0 512 512" version="1.1" xmlns="http://www.w3.org/2000/svg" xmlns:xlink="http://www.w3.org/1999/xlink" xml:space="preserve" xmlns:serif="http://www.serif.com/" style="fill-rule:evenodd;clip-rule:evenodd;stroke-linejoin:round;stroke-miterlimit:2;">
    <g id="Logo" transform="matrix(0.637323,0,0,0.637323,-243.095,-716.725)">
        <g id="Kreis" transform="matrix(1.44936,0,0,1.50279,387.258,1039.34)">
            <ellipse cx="273.123" cy="324.015" rx="259.822" ry="250.584" style="fill:url(#_Linear1);"/>
            <clipPath id="_clip2">
                <ellipse cx="273.123" cy="324.015" rx="259.822" ry="250.584"/>
            </clipPath>
            <g clip-path="url(#_clip2)">
                <g id="Shadow" transform="matrix(1.10322,0,0,1.064,-5.58287,50.5786)">
                    <path d="M156.285,427.208L389.554,660.477L668.803,495.551L374.012,200.761L156.285,427.208Z" style="fill:rgb(22,22,22);"/>
                    <g transform="matrix(1,0,0,1,-4.22105,0.775864)">
                        <path d="M208.628,178.613L485.935,455.919L590.027,364.63L296.923,71.526L294.175,138.989L208.628,178.613Z" style="fill:rgb(22,22,22);"/>
                    </g>
                    <g transform="matrix(1,0,0,1,-85.3876,27.8512)">
                        <path d="M310.385,145.641L587.692,422.948L590.392,361.357L297.288,68.253L294.175,138.989L310.385,145.641Z" style="fill:rgb(22,22,22);"/>
                    </g>
                </g>
            </g>
        </g>
        <g transform="matrix(1.471,0,0,1.471,406.537,1149.69)">
            <path d="M256.049,220C286.222,219.994 312.656,207.31 329.388,194.134C346.35,180.754 370.899,183.406 384.611,200.1C407.129,227.376 420.598,261.944 420.598,299.53C420.598,361.08 382.604,437.101 329.764,463.706C307.035,475.15 283.466,480.586 256.098,480.599L256.098,480.599L256.049,480.599L256,480.599L256,480.599C228.632,480.586 205.063,475.15 182.334,463.706C129.494,437.101 91.5,361.08 91.5,299.53C91.5,261.944 104.969,227.376 127.487,200.1C141.199,183.406 165.748,180.754 182.71,194.134C199.442,207.31 225.876,219.994 256.049,220Z" style="fill:rgb(255,203,118);"/>
        </g>
        <g id="Flame-2" serif:id="Flame 2" transform="matrix(0.965725,0,0,0.89175,164.497,436.391)">
            <path d="M604.408,844.314C601.981,840.845 601.962,836.056 604.362,832.565C606.763,829.074 611.005,827.721 614.769,829.246C633.87,836.869 658.833,848.629 678.207,864.452C718.526,897.381 729.55,919.407 738.552,942.091C749.208,968.943 750.785,996.68 748.515,1016.08C742.018,1071.61 700.355,1117.5 641.034,1117.5C581.713,1117.5 534.493,1072.05 533.553,1016.08C532.986,982.372 543.985,955.443 555.988,936.22C558.982,931.437 564.594,929.469 569.609,931.444C574.623,933.419 577.757,938.831 577.215,944.58C575.493,956.716 574.362,969.372 574.932,979.484C576.863,1013.7 597.171,1022.5 618.083,1022.29C640.371,1022.08 662.925,1003.17 654.797,954.895C647.69,912.681 622.362,870.194 604.408,844.314Z" style="fill:rgb(255,111,0);"/>
            <clipPath id="_clip3">
                <path d="M604.408,844.314C601.981,840.845 601.962,836.056 604.362,832.565C606.763,829.074 611.005,827.721 614.769,829.246C633.87,836.869 658.833,848.629 678.207,864.452C718.526,897.381 729.55,919.407 738.552,942.091C749.208,968.943 750.785,996.68 748.515,1016.08C742.018,1071.61 700.355,1117.5 641.034,1117.5C581.713,1117.5 534.493,1072.05 533.553,1016.08C532.986,982.372 543.985,955.443 555.988,936.22C558.982,931.437 564.594,929.469 569.609,931.444C574.623,933.419 577.757,938.831 577.215,944.58C575.493,956.716 574.362,969.372 574.932,979.484C576.863,1013.7 597.171,1022.5 618.083,1022.29C640.371,1022.08 662.925,1003.17 654.797,954.895C647.69,912.681 622.362,870.194 604.408,844.314Z"/>
            </clipPath>
            <g clip-path="url(#_clip3)">
                <g transform="matrix(1.28784,-0.270602,0.285942,1.59598,247.349,825.209)">
                    <path d="M255.004,46.957C279.547,58.545 306,85.447 313.307,120.161C325.437,177.791 291.571,193.789 262.496,192.403C215.889,190.181 200.194,153.246 231.326,108.9C250.631,81.401 232.663,36.408 255.004,46.957Z" style="fill:rgb(255,209,0);"/>
                </g>
            </g>
        </g>
        <g id="Hut" transform="matrix(1.521,0,0,1.521,393.566,1149.06)">
            <path d="M228.197,408.524C222.698,408.524 217.813,406.688 214.024,403.619C211.776,401.794 210.92,398.752 211.888,396.024C212.856,393.295 215.437,391.472 218.332,391.472C232.214,391.4 256.112,391.396 256.112,391.396C256.112,391.396 280.009,391.4 293.891,391.472C296.786,391.472 299.367,393.295 300.335,396.024C301.303,398.752 300.447,401.794 298.199,403.619C294.41,406.688 289.526,408.524 284.027,408.524L228.197,408.524ZM217.24,378.877C214.208,378.877 211.3,377.671 209.158,375.525C207.015,373.379 205.814,370.469 205.82,367.436C205.831,361.119 205.842,354.539 205.842,354.539C205.842,350.423 203.097,346.814 199.131,345.714C185.313,341.841 175.2,329.468 175.2,314.823C175.2,297.07 190.059,282.657 208.362,282.657C208.362,282.657 208.362,282.657 208.362,282.657C215.401,282.657 221.675,278.218 224.017,271.581C227.243,262.39 236.411,252.015 256,251.998L256,251.998L256.223,251.998L256.223,251.998C275.812,252.015 284.98,262.39 288.206,271.581C290.549,278.218 296.822,282.657 303.861,282.657C303.861,282.657 303.861,282.657 303.861,282.657C322.164,282.657 337.023,297.07 337.023,314.823C337.023,329.468 326.911,341.841 313.093,345.714C309.127,346.814 306.382,350.423 306.381,354.539C306.381,354.539 306.386,361.127 306.391,367.447C306.394,370.478 305.191,373.385 303.049,375.529C300.907,377.672 298.001,378.877 294.971,378.877C275.615,378.877 236.604,378.877 217.24,378.877Z" style="fill:rgb(22,22,22);"/>
        </g>
    </g>
    <defs>
        <linearGradient id="_Linear1" x1="0" y1="0" x2="1" y2="0" gradientUnits="userSpaceOnUse" gradientTransform="matrix(2e-06,0,0,2e-06,3755.77,81.7179)"><stop offset="0" style="stop-color:rgb(39,39,39);stop-opacity:1"/><stop offset="1" style="stop-color:rgb(108,108,108);stop-opacity:1"/></linearGradient>
    </defs>
</svg>
