<?xml version="1.0" encoding="utf-8"?>
<svg xmlns="http://www.w3.org/2000/svg" width="2048" height="512" viewBox="0 0 2048 512" version="1.1" style="clip-rule:evenodd;fill-rule:evenodd;stroke-linejoin:round;stroke-miterlimit:2" id="svg48">
    <g id="Logo" transform="matrix(0.637323,0,0,0.637323,-243.095,-716.725)">
        <g id="Kreis" transform="matrix(1.44936,0,0,1.50279,387.258,1039.34)">
            <ellipse cx="273.12299" cy="324.01501" rx="259.82199" ry="250.584" style="fill:url(#_Linear1)" id="ellipse2"/>
            <clipPath id="_clip2">
                <ellipse cx="273.12299" cy="324.01501" rx="259.82199" ry="250.584" id="ellipse4"/>
            </clipPath>
            <g clip-path="url(#_clip2)" id="g18">
                <g id="Shadow" transform="matrix(1.10322,0,0,1.064,-5.58287,50.5786)">
                    <path d="M 156.285,427.208 389.554,660.477 668.803,495.551 374.012,200.761 Z" style="fill:#161616" id="path7"/>
                    <g transform="translate(-4.22105,0.775864)" id="g11">
                        <path d="M 208.628,178.613 485.935,455.919 590.027,364.63 296.923,71.526 l -2.748,67.463 z" style="fill:#161616" id="path9"/>
                    </g>
                    <g transform="translate(-85.3876,27.8512)" id="g15">
                        <path d="m 310.385,145.641 277.307,277.307 2.7,-61.591 -293.104,-293.104 -3.113,70.736 z" style="fill:#161616" id="path13"/>
                    </g>
                </g>
            </g>
        </g>
        <g transform="matrix(1.471,0,0,1.471,406.537,1149.69)" id="g23">
            <path d="m 256.049,220 c 30.173,-0.006 56.607,-12.69 73.339,-25.866 16.962,-13.38 41.511,-10.728 55.223,5.966 22.518,27.276 35.987,61.844 35.987,99.43 0,61.55 -37.994,137.571 -90.834,164.176 -22.729,11.444 -46.298,16.88 -73.666,16.893 v 0 H 256.049 256 v 0 C 228.632,480.586 205.063,475.15 182.334,463.706 129.494,437.101 91.5,361.08 91.5,299.53 c 0,-37.586 13.469,-72.154 35.987,-99.43 13.712,-16.694 38.261,-19.346 55.223,-5.966 16.732,13.176 43.166,25.86 73.339,25.866 z" style="fill:#ffcb76" id="path21"/>
        </g>
        <g id="Flame-2" transform="matrix(0.965725,0,0,0.89175,164.497,436.391)">
            <path d="m 604.408,844.314 c -2.427,-3.469 -2.446,-8.258 -0.046,-11.749 2.401,-3.491 6.643,-4.844 10.407,-3.319 19.101,7.623 44.064,19.383 63.438,35.206 40.319,32.929 51.343,54.955 60.345,77.639 10.656,26.852 12.233,54.589 9.963,73.989 -6.497,55.53 -48.16,101.42 -107.481,101.42 -59.321,0 -106.541,-45.45 -107.481,-101.42 -0.567,-33.708 10.432,-60.637 22.435,-79.86 2.994,-4.783 8.606,-6.751 13.621,-4.776 5.014,1.975 8.148,7.387 7.606,13.136 -1.722,12.136 -2.853,24.792 -2.283,34.904 1.931,34.216 22.239,43.016 43.151,42.806 22.288,-0.21 44.842,-19.12 36.714,-67.395 -7.107,-42.214 -32.435,-84.701 -50.389,-110.581 z" style="fill:#ff6f00" id="path25"/>
            <clipPath id="_clip3">
                <path d="m 604.408,844.314 c -2.427,-3.469 -2.446,-8.258 -0.046,-11.749 2.401,-3.491 6.643,-4.844 10.407,-3.319 19.101,7.623 44.064,19.383 63.438,35.206 40.319,32.929 51.343,54.955 60.345,77.639 10.656,26.852 12.233,54.589 9.963,73.989 -6.497,55.53 -48.16,101.42 -107.481,101.42 -59.321,0 -106.541,-45.45 -107.481,-101.42 -0.567,-33.708 10.432,-60.637 22.435,-79.86 2.994,-4.783 8.606,-6.751 13.621,-4.776 5.014,1.975 8.148,7.387 7.606,13.136 -1.722,12.136 -2.853,24.792 -2.283,34.904 1.931,34.216 22.239,43.016 43.151,42.806 22.288,-0.21 44.842,-19.12 36.714,-67.395 -7.107,-42.214 -32.435,-84.701 -50.389,-110.581 z" id="path27"/>
            </clipPath>
            <g clip-path="url(#_clip3)" id="g34">
                <g transform="matrix(1.28784,-0.270602,0.285942,1.59598,247.349,825.209)" id="g32">
                    <path d="m 255.004,46.957 c 24.543,11.588 50.996,38.49 58.303,73.204 12.13,57.63 -21.736,73.628 -50.811,72.242 -46.607,-2.222 -62.302,-39.157 -31.17,-83.503 19.305,-27.499 1.337,-72.492 23.678,-61.943 z" style="fill:#ffd100" id="path30"/>
                </g>
            </g>
        </g>
        <g id="Hut" transform="matrix(1.521,0,0,1.521,393.566,1149.06)">
            <path d="m 228.197,408.524 c -5.499,0 -10.384,-1.836 -14.173,-4.905 -2.248,-1.825 -3.104,-4.867 -2.136,-7.595 0.968,-2.729 3.549,-4.552 6.444,-4.552 13.882,-0.072 37.78,-0.076 37.78,-0.076 0,0 23.897,0.004 37.779,0.076 2.895,0 5.476,1.823 6.444,4.552 0.968,2.728 0.112,5.77 -2.136,7.595 -3.789,3.069 -8.673,4.905 -14.172,4.905 z M 217.24,378.877 c -3.032,0 -5.94,-1.206 -8.082,-3.352 -2.143,-2.146 -3.344,-5.056 -3.338,-8.089 0.011,-6.317 0.022,-12.897 0.022,-12.897 0,-4.116 -2.745,-7.725 -6.711,-8.825 -13.818,-3.873 -23.931,-16.246 -23.931,-30.891 0,-17.753 14.859,-32.166 33.162,-32.166 0,0 0,0 0,0 7.039,0 13.313,-4.439 15.655,-11.076 3.226,-9.191 12.394,-19.566 31.983,-19.583 v 0 h 0.223 v 0 c 19.589,0.017 28.757,10.392 31.983,19.583 2.343,6.637 8.616,11.076 15.655,11.076 0,0 0,0 0,0 18.303,0 33.162,14.413 33.162,32.166 0,14.645 -10.112,27.018 -23.93,30.891 -3.966,1.1 -6.711,4.709 -6.712,8.825 0,0 0.005,6.588 0.01,12.908 0.003,3.031 -1.2,5.938 -3.342,8.082 -2.142,2.143 -5.048,3.348 -8.078,3.348 -19.356,0 -58.367,0 -77.731,0 z" style="fill:#161616" id="path37"/>
        </g>
    </g>
    <defs id="defs46">
        <linearGradient id="_Linear1" x1="0" y1="0" x2="1" y2="0" gradientUnits="userSpaceOnUse" gradientTransform="matrix(2e-6,0,0,2e-6,3755.77,81.7179)">
            <stop offset="0" style="stop-color:rgb(39,39,39);stop-opacity:1" id="stop41"/>
            <stop offset="1" style="stop-color:rgb(108,108,108);stop-opacity:1" id="stop43"/>
        </linearGradient>
    </defs>
    <path d="M 747.034 365.293 Q 739.222 369.688 732.223 371.804 Q 725.225 373.92 719.04 373.92 Q 710.739 373.92 707.402 369.281 Q 704.066 364.642 704.066 351.947 Q 704.066 343.646 705.775 301.41 Q 707.484 259.174 707.484 225.319 Q 707.484 216.693 706.995 188.861 Q 706.833 175.352 706.833 167.54 L 694.463 167.54 Q 670.537 167.54 655.807 169.655 Q 641.077 171.771 633.102 176.329 Q 629.359 169.167 627.568 164.04 Q 625.778 158.913 625.778 155.007 Q 625.778 147.683 630.824 144.672 Q 635.869 141.661 648.402 141.661 Q 654.912 141.661 685.674 143.125 Q 716.435 144.59 740.85 144.59 Q 770.309 144.59 787.806 142.312 Q 805.303 140.033 814.417 134.987 Q 817.672 140.196 819.219 144.509 Q 820.765 148.822 820.765 152.566 Q 820.765 161.355 814.254 165.505 Q 807.744 169.655 794.072 169.655 Q 789.027 169.655 769.658 168.842 Q 750.29 168.028 738.734 167.702 Q 737.594 196.185 737.025 221.332 Q 736.455 246.478 736.455 267.637 Q 736.455 308.164 738.978 331.276 Q 741.501 354.388 747.034 365.293 Z M 948.273 364.968 Q 941.925 369.037 936.717 371.153 Q 931.508 373.268 927.602 373.268 Q 920.603 373.268 917.43 368.955 Q 914.256 364.642 913.768 355.039 Q 901.561 365.456 889.598 370.502 Q 877.635 375.547 865.265 375.547 Q 840.851 375.547 825.877 361.875 Q 810.903 348.203 810.903 325.905 Q 810.903 300.677 831.492 285.459 Q 852.081 270.241 886.912 270.241 Q 892.609 270.241 899.038 270.648 Q 905.467 271.055 912.791 271.869 Q 913.117 270.404 913.198 268.858 Q 913.279 267.312 913.279 265.196 Q 913.279 248.269 903.758 239.398 Q 894.236 230.528 876.17 230.528 Q 861.196 230.528 851.512 235.492 Q 841.828 240.456 835.805 250.873 Q 829.946 249.408 826.935 245.827 Q 823.924 242.246 823.924 236.55 Q 823.924 224.668 838.979 216.937 Q 854.035 209.206 878.286 209.206 Q 908.071 209.206 922.964 223.61 Q 937.856 238.015 937.856 266.661 Q 937.856 272.032 937.368 285.378 Q 936.88 298.724 936.88 306.862 Q 936.88 329.323 939.565 342.995 Q 942.251 356.667 948.273 364.968 Z M 912.465 292.539 Q 904.978 291.4 899.038 290.83 Q 893.097 290.261 888.865 290.261 Q 863.637 290.261 850.779 298.643 Q 837.921 307.025 837.921 323.627 Q 837.921 336.973 846.873 344.623 Q 855.825 352.272 871.613 352.272 Q 883.494 352.272 893.829 347.796 Q 904.165 343.321 912.791 334.369 Q 912.465 326.231 912.384 321.104 Q 912.303 315.977 912.303 311.257 Q 912.303 308.327 912.465 302.061 Q 912.628 295.795 912.465 292.539 Z M 989.05 248.594 Q 988.724 266.498 988.155 287.087 Q 987.585 307.676 987.585 310.28 Q 987.585 331.439 989.538 344.623 Q 991.491 357.806 995.723 366.595 Q 988.887 370.176 983.19 371.885 Q 977.494 373.594 971.96 373.594 Q 964.473 373.594 961.706 369.362 Q 958.939 365.13 958.939 351.621 Q 958.939 348.692 960.648 321.429 Q 962.357 294.167 962.357 269.916 Q 962.357 246.967 960.567 234.434 Q 958.776 221.901 954.707 211.973 Q 958.288 210.834 961.95 210.183 Q 965.612 209.532 969.03 209.532 Q 977.657 209.532 982.702 214.333 Q 987.748 219.135 988.399 227.924 Q 1000.606 219.135 1014.278 214.333 Q 1027.949 209.532 1041.296 209.532 Q 1057.572 209.532 1070.511 216.612 Q 1083.451 223.692 1090.287 236.224 Q 1095.007 244.851 1097.041 256.325 Q 1099.076 267.8 1099.076 291.237 Q 1099.076 293.679 1098.832 302.793 Q 1098.587 311.908 1098.587 318.581 Q 1098.587 335.345 1100.785 347.39 Q 1102.982 359.434 1107.376 366.27 Q 1099.727 370.013 1094.111 371.804 Q 1088.496 373.594 1083.939 373.594 Q 1076.289 373.594 1073.278 369.606 Q 1070.267 365.619 1070.267 354.551 Q 1070.267 347.878 1071.325 325.824 Q 1072.383 303.77 1072.383 288.308 Q 1072.383 258.848 1063.431 245.583 Q 1054.479 232.318 1034.623 232.318 Q 1024.531 232.318 1012.813 236.468 Q 1001.094 240.619 989.05 248.594 Z M 1265.247 325.417 Q 1265.573 309.466 1265.817 291.319 Q 1266.061 273.171 1266.061 270.892 Q 1266.061 258.522 1265.98 252.5 Q 1265.898 246.478 1265.573 241.27 Q 1254.017 236.387 1244.007 234.027 Q 1233.997 231.667 1225.045 231.667 Q 1196.562 231.667 1179.961 249.489 Q 1163.359 267.312 1163.359 297.91 Q 1163.359 323.301 1177.031 338.112 Q 1190.703 352.923 1213.978 352.923 Q 1229.114 352.923 1241.647 346.169 Q 1254.179 339.414 1265.247 325.417 Z M 1267.037 218.646 L 1267.037 204.323 Q 1267.037 179.421 1265.084 164.528 Q 1263.131 149.636 1259.062 141.335 Q 1265.573 137.754 1271.269 136.045 Q 1276.966 134.336 1281.36 134.336 Q 1289.173 134.336 1292.265 138.405 Q 1295.358 142.474 1295.358 153.542 Q 1295.358 160.541 1293.16 201.719 Q 1290.963 242.898 1290.963 277.24 Q 1290.963 318.907 1293.323 337.787 Q 1295.683 356.667 1301.38 366.27 Q 1294.218 370.013 1288.359 371.804 Q 1282.5 373.594 1277.617 373.594 Q 1271.106 373.594 1268.421 369.851 Q 1265.735 366.107 1265.735 356.992 Q 1265.735 353.9 1265.817 352.191 Q 1265.898 350.482 1265.898 349.017 Q 1253.203 362.689 1239.45 369.118 Q 1225.696 375.547 1208.932 375.547 Q 1176.543 375.547 1155.954 354.063 Q 1135.364 332.578 1135.364 298.562 Q 1135.364 260.15 1160.755 235.004 Q 1186.146 209.857 1225.045 209.857 Q 1234.485 209.857 1244.983 212.054 Q 1255.481 214.252 1267.037 218.646 Z M 1415.636 354.226 Q 1442.003 354.226 1458.849 336.566 Q 1475.695 318.907 1475.695 291.237 Q 1475.695 264.219 1459.175 247.211 Q 1442.654 230.202 1416.287 230.202 Q 1389.432 230.202 1372.912 247.862 Q 1356.391 265.521 1356.391 294.655 Q 1356.391 320.534 1373.156 337.38 Q 1389.92 354.226 1415.636 354.226 Z M 1413.683 377.663 Q 1375.923 377.663 1352.16 354.388 Q 1328.397 331.114 1328.397 294.655 Q 1328.397 255.918 1353.787 231.748 Q 1379.178 207.579 1419.705 207.579 Q 1456.326 207.579 1480.008 230.528 Q 1503.689 253.477 1503.689 288.633 Q 1503.689 302.793 1499.214 316.628 Q 1494.738 330.463 1487.088 340.228 Q 1472.602 358.946 1454.292 368.304 Q 1435.981 377.663 1413.683 377.663 Z M 1615.661 354.226 Q 1642.028 354.226 1658.874 336.566 Q 1675.719 318.907 1675.719 291.237 Q 1675.719 264.219 1659.199 247.211 Q 1642.679 230.202 1616.312 230.202 Q 1589.456 230.202 1572.936 247.862 Q 1556.416 265.521 1556.416 294.655 Q 1556.416 320.534 1573.18 337.38 Q 1589.945 354.226 1615.661 354.226 Z M 1613.708 377.663 Q 1575.947 377.663 1552.184 354.388 Q 1528.421 331.114 1528.421 294.655 Q 1528.421 255.918 1553.812 231.748 Q 1579.202 207.579 1619.73 207.579 Q 1656.351 207.579 1680.032 230.528 Q 1703.714 253.477 1703.714 288.633 Q 1703.714 302.793 1699.238 316.628 Q 1694.762 330.463 1687.113 340.228 Q 1672.627 358.946 1654.316 368.304 Q 1636.006 377.663 1613.708 377.663 Z M 1766.381 245.502 Q 1778.588 228.412 1789.656 220.03 Q 1800.724 211.648 1811.466 211.648 Q 1820.58 211.648 1827.009 217.426 Q 1833.439 223.204 1833.439 231.667 Q 1833.439 237.201 1829.776 242.491 Q 1826.114 247.78 1818.79 252.989 Q 1816.186 245.827 1812.361 242.409 Q 1808.536 238.991 1803.165 238.991 Q 1795.19 238.991 1786.401 246.885 Q 1777.612 254.779 1769.148 269.59 Q 1768.334 276.914 1767.846 284.483 Q 1767.358 292.051 1767.358 299.213 Q 1767.358 323.627 1770.043 339.903 Q 1772.729 356.179 1778.426 366.595 Q 1771.915 370.013 1765.649 371.804 Q 1759.383 373.594 1753.36 373.594 Q 1745.385 373.594 1742.374 369.606 Q 1739.363 365.619 1739.363 353.574 Q 1739.363 349.18 1741.072 319.802 Q 1742.781 290.424 1742.781 265.196 Q 1742.781 244.525 1741.153 233.457 Q 1739.526 222.39 1735.782 213.926 Q 1739.038 212.787 1742.211 212.217 Q 1745.385 211.648 1748.803 211.648 Q 1758.243 211.648 1762.801 216.123 Q 1767.358 220.599 1767.358 229.877 Q 1767.358 231.993 1767.114 235.655 Q 1766.87 239.317 1766.381 245.502 Z" style="line-height: 416.666px; text-wrap-mode: nowrap;"/>
</svg>
